<?xml version="1.0" standalone="no"?>
<!DOCTYPE svg PUBLIC "-//W3C//DTD SVG 20010904//EN"
 "http://www.w3.org/TR/2001/REC-SVG-20010904/DTD/svg10.dtd">
<svg version="1.0" xmlns="http://www.w3.org/2000/svg"
 width="180.000000pt" height="180.000000pt" viewBox="0 0 180.000000 180.000000"
 preserveAspectRatio="xMidYMid meet">

<g transform="translate(0.000000,180.000000) scale(0.100000,-0.100000)"
fill="#000000" stroke="none">
<path d="M874 1533 c-9 -21 -27 -60 -41 -86 -14 -27 -28 -59 -32 -70 -17 -58
-222 -425 -270 -483 -5 -6 -16 -25 -25 -42 -9 -18 -21 -32 -26 -32 -5 0 -11
-8 -15 -19 -3 -10 -13 -28 -23 -39 -9 -11 -24 -30 -32 -42 -8 -12 -24 -32 -35
-44 -35 -39 -79 -93 -95 -116 -8 -12 -23 -31 -33 -42 -9 -12 -17 -25 -17 -30
0 -5 -4 -7 -8 -4 -5 3 -15 -5 -23 -16 -8 -12 -43 -52 -79 -89 -36 -38 -73 -78
-82 -91 -17 -21 -25 -68 -12 -68 3 0 48 42 98 93 115 114 173 167 178 161 3
-2 13 5 23 16 10 11 24 20 32 20 7 0 13 5 13 10 0 6 7 10 15 10 8 0 15 5 15
10 0 6 7 10 15 10 8 0 15 5 15 10 0 6 9 10 20 10 11 0 20 5 20 10 0 6 9 10 20
10 11 0 20 -5 20 -10 0 -6 -9 -28 -20 -50 -11 -22 -20 -43 -20 -48 0 -5 -27
-59 -61 -122 -54 -101 -66 -140 -41 -140 4 0 18 21 30 46 27 55 29 58 119 147
81 81 99 97 110 97 5 0 15 9 23 20 8 11 22 20 32 20 10 0 18 5 18 10 0 16 48
11 71 -8 24 -20 69 -87 74 -111 2 -9 10 -32 19 -52 8 -20 18 -66 22 -103 4
-36 10 -66 14 -66 4 0 10 30 14 66 4 37 14 83 22 103 9 20 17 44 19 55 4 19
46 79 76 109 19 18 69 24 69 7 0 -5 8 -10 18 -10 10 0 24 -9 32 -20 8 -11 18
-20 23 -20 4 0 17 -9 29 -20 12 -10 25 -17 30 -14 4 3 8 1 8 -4 0 -5 26 -37
58 -70 73 -78 76 -82 97 -122 10 -19 24 -40 31 -48 12 -11 15 -11 20 2 3 8
-10 44 -30 79 -20 35 -36 71 -36 80 0 10 -4 17 -10 17 -5 0 -10 8 -10 18 0 10
-7 28 -16 41 -9 12 -24 45 -34 72 -18 48 -18 49 1 49 10 0 19 -4 19 -10 0 -5
7 -10 15 -10 8 0 15 -4 15 -10 0 -5 9 -10 20 -10 11 0 20 -4 20 -10 0 -5 7
-10 15 -10 8 0 15 -4 15 -8 0 -4 15 -16 33 -27 17 -10 36 -25 40 -32 5 -7 12
-11 16 -8 5 2 63 -49 130 -115 66 -66 123 -120 126 -120 3 0 5 11 5 23 0 30
-13 46 -195 241 -27 29 -57 63 -65 76 -8 12 -22 30 -30 40 -8 9 -31 36 -50 60
-19 23 -40 47 -46 54 -6 6 -16 22 -23 34 -12 22 -19 32 -63 84 -10 12 -18 25
-18 29 0 4 -6 14 -13 21 -7 7 -28 39 -45 70 -18 31 -36 58 -41 60 -9 4 -171
311 -171 326 0 5 -16 38 -34 71 -19 34 -33 61 -30 61 2 0 -7 23 -21 50 -14 28
-30 50 -35 50 -6 0 -17 -17 -26 -37z m16 -585 l-1 -523 -34 72 c-18 40 -44 83
-57 95 -39 39 -85 68 -107 68 -12 0 -21 5 -21 10 0 13 -87 13 -95 0 -3 -5 -19
-10 -36 -10 -16 0 -29 -4 -29 -10 0 -5 -13 -10 -30 -10 -16 0 -30 -4 -30 -10
0 -5 -7 -10 -15 -10 -8 0 -15 -4 -15 -9 0 -5 -9 -11 -20 -14 -25 -7 -25 4 0
33 11 13 20 26 20 30 0 4 12 20 26 36 14 16 37 47 51 69 15 22 32 46 40 53 7
7 13 18 13 23 0 5 9 18 20 29 10 10 31 43 46 72 15 29 30 55 33 58 10 7 141
244 141 255 0 5 16 41 34 79 19 39 40 86 47 104 6 17 13 32 15 32 2 0 4 -235
4 -522z m107 342 c66 -141 98 -201 115 -219 9 -10 33 -52 53 -92 21 -41 42
-76 46 -77 5 -2 19 -23 31 -45 11 -23 24 -44 27 -47 4 -3 24 -30 46 -60 22
-30 44 -60 50 -66 5 -6 17 -22 25 -34 8 -12 23 -31 33 -43 9 -11 16 -22 14
-23 -6 -6 -57 20 -57 29 0 4 -9 7 -20 7 -11 0 -20 5 -20 10 0 6 -9 10 -20 10
-11 0 -20 5 -20 10 0 6 -13 10 -29 10 -17 0 -33 5 -36 10 -3 6 -28 10 -56 10
-27 0 -49 -4 -49 -10 0 -5 -9 -10 -21 -10 -11 0 -35 -10 -52 -22 -28 -20 -40
-31 -75 -74 -16 -18 -34 -57 -53 -109 -18 -49 -18 -43 -18 485 l0 535 26 -55
c14 -30 41 -89 60 -130z m-313 -672 c11 -10 11 -15 0 -25 -7 -7 -19 -13 -26
-13 -8 0 -27 -13 -43 -30 -16 -16 -33 -30 -38 -30 -4 0 -28 -21 -53 -46 -46
-49 -54 -50 -29 -6 8 15 21 49 30 77 9 27 24 57 33 67 20 20 106 24 126 6z
m572 -45 c9 -21 22 -51 30 -66 20 -41 17 -54 -6 -27 -11 13 -20 27 -20 32 0 4
-7 8 -15 8 -8 0 -15 3 -15 8 0 4 -18 18 -40 32 -22 14 -40 28 -40 32 0 3 -8 9
-17 11 -10 3 10 5 45 6 l62 1 16 -37z"/>
</g>
</svg>
